<svg width="951" height="949" viewBox="0 0 951 949" encoding="UTF-8" xmlns="http://www.w3.org/2000/svg" >

<!-- Custom -->
<path d="M 495.3399263027461 549.2484266366542 L 654.417909554797 390.17044338460335
L 336.26194305069504 390.17044338460335
L 495.3399263027461 549.2484266366542" fill="#000" fill-opacity="1" stroke-width="0" stroke-opacity="0"/>
<path d="M 495.3399263027461 549.2484266366542 L 654.417909554797 390.17044338460335" stroke="#fff" fill-opacity="0" stroke-width="1" stroke-opacity="1"/>
<path d="M 654.417909554797 390.17044338460335 L 336.26194305069504 390.17044338460335" stroke="#fff" fill-opacity="0" stroke-width="1" stroke-opacity="1"/>
<path d="M 336.26194305069504 390.17044338460335 L 495.3399263027461 549.2484266366542" stroke="#fff" fill-opacity="0" stroke-width="1" stroke-opacity="1"/>

<!-- Custom -->
<path d="M 330.76246442712875 50.93314215683089 L 330.76246442712875 369.0891086609329
L 489.84044767917976 210.01112540888178
L 330.76246442712875 50.93314215683089" fill="#000" fill-opacity="1" stroke-width="0" stroke-opacity="0"/>
<path d="M 330.76246442712875 50.93314215683089 L 330.76246442712875 369.0891086609329" stroke="#fff" fill-opacity="0" stroke-width="1" stroke-opacity="1"/>
<path d="M 330.76246442712875 369.0891086609329 L 489.84044767917976 210.01112540888178" stroke="#fff" fill-opacity="0" stroke-width="1" stroke-opacity="1"/>
<path d="M 489.84044767917976 210.01112540888178 L 330.76246442712875 50.93314215683089" stroke="#fff" fill-opacity="0" stroke-width="1" stroke-opacity="1"/>

<!-- Custom -->
<path d="M 415.18001613517754 351.7557325385176 L 574.2579993872284 351.7557325385176
L 574.2579993872284 192.6777492864666
L 415.18001613517754 351.7557325385176" fill="#000" fill-opacity="1" stroke-width="0" stroke-opacity="0"/>
<path d="M 415.18001613517754 351.7557325385176 L 574.2579993872284 351.7557325385176" stroke="#fff" fill-opacity="0" stroke-width="1" stroke-opacity="1"/>
<path d="M 574.2579993872284 351.7557325385176 L 574.2579993872284 192.6777492864666" stroke="#fff" fill-opacity="0" stroke-width="1" stroke-opacity="1"/>
<path d="M 574.2579993872284 192.6777492864666 L 415.18001613517754 351.7557325385176" stroke="#fff" fill-opacity="0" stroke-width="1" stroke-opacity="1"/>

<!-- Custom -->
<path d="M 540.923645613361 611.6955072099549 L 461.38465398733547 691.2344988359805
L 620.4626372393866 691.2344988359805
L 540.923645613361 611.6955072099549" fill="#000" fill-opacity="1" stroke-width="0" stroke-opacity="0"/>
<path d="M 540.923645613361 611.6955072099549 L 461.38465398733547 691.2344988359805" stroke="#fff" fill-opacity="0" stroke-width="1" stroke-opacity="1"/>
<path d="M 461.38465398733547 691.2344988359805 L 620.4626372393866 691.2344988359805" stroke="#fff" fill-opacity="0" stroke-width="1" stroke-opacity="1"/>
<path d="M 620.4626372393866 691.2344988359805 L 540.923645613361 611.6955072099549" stroke="#fff" fill-opacity="0" stroke-width="1" stroke-opacity="1"/>

<!-- Custom -->
<path d="M 488.814230966605 782.9602920339792 L 568.3532225926306 862.4992836600044
L 568.3532225926306 703.4213004079535
L 488.814230966605 782.9602920339792" fill="#000" fill-opacity="1" stroke-width="0" stroke-opacity="0"/>
<path d="M 488.814230966605 782.9602920339792 L 568.3532225926306 862.4992836600044" stroke="#fff" fill-opacity="0" stroke-width="1" stroke-opacity="1"/>
<path d="M 568.3532225926306 862.4992836600044 L 568.3532225926306 703.4213004079535" stroke="#fff" fill-opacity="0" stroke-width="1" stroke-opacity="1"/>
<path d="M 568.3532225926306 703.4213004079535 L 488.814230966605 782.9602920339792" stroke="#fff" fill-opacity="0" stroke-width="1" stroke-opacity="1"/>

<!-- Custom -->
<path d="M 352.39958849670774 882.8267834318319 L 431.9385801227332 803.2877918058065
L 431.9385801227332 644.2098085537557
L 352.39958849670774 723.748800179781
L 352.39958849670774 882.8267834318319" fill="#000" fill-opacity="1" stroke-width="0" stroke-opacity="0"/>
<path d="M 352.39958849670774 882.8267834318319 L 431.9385801227332 803.2877918058065" stroke="#fff" fill-opacity="0" stroke-width="1" stroke-opacity="1"/>
<path d="M 431.9385801227332 803.2877918058065 L 431.9385801227332 644.2098085537557" stroke="#fff" fill-opacity="0" stroke-width="1" stroke-opacity="1"/>
<path d="M 431.9385801227332 644.2098085537557 L 352.39958849670774 723.748800179781" stroke="#fff" fill-opacity="0" stroke-width="1" stroke-opacity="1"/>
<path d="M 352.39958849670774 723.748800179781 L 352.39958849670774 882.8267834318319" stroke="#fff" fill-opacity="0" stroke-width="1" stroke-opacity="1"/>

<!-- Custom -->
<path d="M 397.4650536615683 493.13957816736354 L 317.92606203554277 572.6785697933889
L 397.4650536615681 652.2175614194144
L 477.0040452875936 572.678569793389
L 397.4650536615683 493.13957816736354" fill="#000" fill-opacity="1" stroke-width="0" stroke-opacity="0"/>
<path d="M 397.4650536615683 493.13957816736354 L 317.92606203554277 572.6785697933889" stroke="#fff" fill-opacity="0" stroke-width="1" stroke-opacity="1"/>
<path d="M 317.92606203554277 572.6785697933889 L 397.4650536615681 652.2175614194144" stroke="#fff" fill-opacity="0" stroke-width="1" stroke-opacity="1"/>
<path d="M 397.4650536615681 652.2175614194144 L 477.0040452875936 572.678569793389" stroke="#fff" fill-opacity="0" stroke-width="1" stroke-opacity="1"/>
<path d="M 477.0040452875936 572.678569793389 L 397.4650536615683 493.13957816736354" stroke="#fff" fill-opacity="0" stroke-width="1" stroke-opacity="1"/>

</svg>