<?xml version="1.0" encoding="utf-8"?>
<!-- Svg Vector Icons : http://www.onlinewebfonts.com/icon -->
<!DOCTYPE svg PUBLIC "-//W3C//DTD SVG 1.1//EN" "http://www.w3.org/Graphics/SVG/1.1/DTD/svg11.dtd">
<svg version="1.1" xmlns="http://www.w3.org/2000/svg" xmlns:xlink="http://www.w3.org/1999/xlink" x="0px" y="0px" viewBox="0 0 1000 1000" enable-background="new 0 0 1000 1000" xml:space="preserve">
<metadata> Svg Vector Icons : http://www.onlinewebfonts.com/icon </metadata>
<g><g transform="translate(0.000000,512.000000) scale(0.100000,-0.100000)"><path d="M4931,5010.8c-23-9.6-59.5-42.2-82.5-71c-36.4-46-40.3-74.8-40.3-276.2v-224.4l-224.4-23c-1010.7-101.7-1914-529.3-2633.1-1248.5C1231.5,2448.6,803.8,1545.3,702.2,536.6l-23-226.3H452.9c-224.4,0-228.2,0-289.6-55.6c-51.8-46-63.3-69-63.3-136.2s11.5-90.1,63.3-136.2c61.4-55.6,65.2-55.6,289.6-55.6h226.3l23-224.4c101.7-1010.7,529.3-1914,1248.5-2633.1c719.2-719.2,1622.5-1146.8,2633.1-1248.5l224.4-23v-226.3c0-224.4,0-228.2,55.6-289.6c46-51.8,69-63.3,136.2-63.3c67.1,0,90.1,11.5,136.2,63.3c55.6,61.4,55.6,65.2,55.6,289.6v226.3l226.3,23c1008.8,101.6,1912.1,529.3,2631.2,1248.5S9196.2-1308.4,9297.8-297.7l23,224.4h226.3c224.4,0,228.2,0,289.6,55.6c51.8,46,63.3,69.1,63.3,136.2s-11.5,90.1-63.3,136.2c-61.4,55.6-65.2,55.6-289.6,55.6h-226.3l-23,226.3c-101.6,1008.8-529.3,1912.1-1248.5,2631.2S6426.9,4314.6,5418.1,4416.3l-226.3,23v226.3c0,220.5-1.9,230.1-51.8,285.8C5082.5,5012.7,4996.2,5037.7,4931,5010.8z M4812.1,3599.3c5.7-410.4,7.7-431.5,46-471.8c24.9-24.9,74.8-44.1,126.6-49.9c71-7.7,94-1.9,141.9,38.4l55.6,47.9l5.8,437.3l5.8,435.3l176.4-11.5c402.7-26.9,934-174.5,1346.3-375.9c782.5-381.6,1432.6-1031.8,1814.2-1814.2c201.4-412.3,349.1-943.6,375.9-1346.3l11.5-176.4l-433.4-5.8c-414.3-5.8-435.3-7.7-475.6-46c-25-24.9-44.1-74.8-49.9-126.6c-7.7-71-1.9-94,38.4-141.9l47.9-55.6l437.3-5.8l435.3-5.8l-11.5-176.4c-15.3-241.7-92.1-598.4-186-880.3c-280-840-841.9-1555.3-1620.5-2067.4c-471.8-308.8-1189-552.3-1729.9-588.8l-176.4-11.5l-5.8,433.4c-5.8,414.3-7.7,435.3-46,475.6c-25,24.9-74.8,44.1-126.6,49.9c-70.9,7.7-94,1.9-141.9-38.4l-55.6-47.9l-5.7-437.3l-5.8-435.3l-176.4,11.5c-241.6,15.3-598.4,92.1-880.3,186c-840,280-1555.3,841.9-2067.4,1620.5c-308.8,471.8-552.3,1189-588.8,1729.9l-11.5,176.4l433.4,5.8c414.2,5.8,435.3,7.7,475.6,46c24.9,24.9,44.1,74.8,49.9,126.6c7.7,71,1.9,94-38.4,141.9l-47.9,55.6l-437.3,5.8l-435.3,5.8l11.5,176.4c15.3,241.6,92.1,598.4,186,880.3c327.9,985.8,1064.4,1821.9,2006,2280.3c431.5,211,1018.4,370.1,1401.9,379.7l118.9,1.9L4812.1,3599.3z"/><path fill='#f00' d="M4827.4,1482c-694.3-97.8-1194.8-669.3-1194.8-1363.6c0-765.2,602.2-1367.4,1367.4-1367.4c765.2,0,1367.4,602.2,1367.4,1367.4c0,527.4-285.7,991.5-757.5,1229.3C5391.2,1457.1,5063.3,1514.6,4827.4,1482z"/></g></g>
</svg>
