<?xml version="1.0" encoding="utf-8"?>
<!-- Generator: Adobe Illustrator 23.0.6, SVG Export Plug-In . SVG Version: 6.00 Build 0)  -->
<svg version="1.1" id="Ebene_1" xmlns="http://www.w3.org/2000/svg" xmlns:xlink="http://www.w3.org/1999/xlink" x="0px" y="0px"
	 viewBox="0 0 200 200" style="enable-background:new 0 0 200 200;" xml:space="preserve">
<style type="text/css">
	.st0{fill:#9B9C9D;stroke:#CCCCCB;stroke-miterlimit:10;}
	.st1{fill:#1A171B;}
	.st2{fill:#9B9C9D;}
	.st3{fill:#636466;}
</style>
<path class="st0" d="M19,145.3l0-75.9l92-25.1c0,0-3.8,5.9-4.1,11.4c-0.2,4.8-0.4,63.2-0.4,63.2L19,145.3z"/>
<polygon class="st1" points="13.2,152.9 13.3,65.2 153.4,26.9 155,32.2 19,69.4 19,145.3 109.9,117.6 109.8,123.5 17.8,151.5 "/>
<g>
	<path class="st2" d="M154.6,32.3l-29.1,7.9c0,0-8.5,4.4-9.9,6c-2.2,2.5-5.1,10.2-5.1,10.2l2.5,11.1l3.4,4.1l5.9,3.1l5.5,1l9.9-0.4
		l16.9-3.2V58.2L154.6,32.3L154.6,32.3z"/>
	<path class="st3" d="M108.2,56.9v72.2c0,0,0.2,9.7,3,14.2c2,3.2,7.3,8.9,10.1,11c7,5.3,62.6-12,62.6-12V64.6l-52.2,13.3l-17.9-4.6
		l-3.3-8.9L108.2,56.9z"/>
</g>
<path class="st1" d="M182,60.2c-13.1,5.9-50.1,19.2-63.6,10.5c-3.7-2.4-5.8-6.4-5.6-12.2c0.6-13.4,13.4-17.4,13.8-17.6l33.2-9
	c1.8-0.5-0.1-6.6-1.9-6.1l-33.3,9.1c-0.7,0.2-17.5,5.1-18.3,23c-0.1,1.5,0,2.9,0.2,4.3v71.8l0.1,0.1c0.1,6.1,1.5,11.4,4.4,15.5
	c5.7,8,14.4,9.2,18.2,9.6c1.2,0.1,2.4,0.2,3.7,0.2c20,0,50.1-14,51.4-14.6l1.9-0.9l0.6-85.5L182,60.2z M179.5,139.5
	c-7.3,3.2-34.6,15.5-50.1,13.9c-2.2-0.2-7.4-1.1-11.5-4.2c-7.9-4.5-8.3-22.8-8.1-30.4l0,0V71.3c1.3,1.9,2.9,3.5,4.8,4.7
	c16,10.3,52.2-2.7,65.3-8L179.5,139.5z"/>
</svg>
