<svg id="svg" version="1.1" xmlns="http://www.w3.org/2000/svg" xmlns:xlink="http://www.w3.org/1999/xlink" width="400" height="400" viewBox="0, 0, 400,400"><g id="svgg"><path id="path0" d="M90.061 208.201 C 80.564 210.886,80.149 211.282,80.302 217.502 C 80.437 222.970,80.243 223.302,75.144 226.356 C 69.812 229.549,69.216 229.523,63.861 225.857 C 59.607 222.944,59.149 223.134,51.460 231.000 C 45.577 237.018,45.429 237.746,48.954 243.257 C 51.490 247.220,51.455 248.232,48.618 252.987 C 45.466 258.269,45.580 258.198,40.257 258.210 C 33.487 258.226,33.764 257.988,30.982 266.190 C 27.772 275.652,28.179 277.721,33.827 280.641 C 38.405 283.008,38.800 283.718,38.799 289.559 C 38.797 295.512,38.444 296.171,34.167 298.229 C 28.270 301.065,27.827 302.349,30.162 309.834 C 30.912 312.235,31.812 315.219,32.164 316.465 C 33.295 320.480,33.851 320.716,42.160 320.716 C 50.170 320.716,49.175 321.080,54.642 316.155 C 56.379 314.591,58.810 312.431,60.044 311.355 C 64.725 307.278,65.193 306.012,63.802 301.200 C 55.336 271.918,79.750 240.714,111.200 240.621 C 125.783 240.577,143.591 248.357,141.803 253.991 C 141.662 254.436,141.378 254.800,141.173 254.800 C 140.316 254.800,140.899 256.472,142.213 257.787 C 143.773 259.346,144.577 259.525,145.653 258.552 C 148.970 255.551,156.169 266.705,159.028 279.276 C 160.707 286.662,160.207 288.800,156.800 288.800 L 155.200 288.800 155.200 290.814 C 155.200 293.226,156.008 294.626,157.844 295.393 C 159.629 296.138,159.818 297.214,158.837 301.053 C 154.713 317.206,143.594 329.746,128.207 335.597 C 118.491 339.292,104.836 339.603,96.098 336.330 C 91.298 334.531,90.863 334.747,83.320 342.669 C 75.466 350.919,75.378 351.101,77.824 354.029 C 80.279 356.967,80.531 357.744,80.231 361.444 C 79.792 366.852,80.614 367.984,86.254 369.736 C 97.945 373.367,99.693 373.213,101.991 368.354 C 104.496 363.058,106.062 361.997,111.373 362.002 C 116.485 362.007,118.203 363.064,120.219 367.442 C 122.511 372.423,124.112 373.017,130.877 371.399 C 141.676 368.817,143.250 367.509,142.479 361.758 C 141.817 356.814,142.451 355.715,147.877 352.399 C 152.336 349.674,153.596 349.716,158.036 352.735 C 162.678 355.893,164.028 355.493,170.516 349.034 C 176.765 342.814,177.385 340.907,174.429 336.992 C 170.810 332.198,170.877 330.877,175.068 324.515 C 177.621 320.637,178.429 320.257,183.282 320.658 C 189.142 321.141,190.557 319.270,192.835 308.024 C 194.101 301.774,193.548 300.529,188.459 298.168 L 185.800 296.935 187.154 295.656 C 188.383 294.496,188.527 294.120,188.708 291.589 L 188.907 288.800 187.254 288.800 C 181.489 288.800,183.495 282.495,190.035 280.055 C 193.469 278.775,194.065 274.278,191.821 266.600 C 189.492 258.630,188.505 257.723,182.677 258.200 C 177.686 258.608,177.097 258.241,173.706 252.612 C 171.003 248.124,171.082 247.016,174.468 241.888 C 176.423 238.927,176.520 237.433,174.924 234.892 C 173.487 232.605,173.096 229.768,174.161 229.360 C 174.977 229.047,174.679 227.864,173.669 227.405 C 173.191 227.188,172.800 226.682,172.800 226.282 C 172.800 225.881,172.620 225.664,172.400 225.800 C 172.180 225.936,172.000 225.887,172.000 225.690 C 172.000 225.494,171.730 225.333,171.400 225.333 C 171.070 225.333,170.800 225.573,170.800 225.867 C 170.800 226.734,167.332 226.548,166.014 225.610 C 163.231 223.628,161.388 223.828,157.918 226.485 C 154.050 229.447,152.775 229.407,147.295 226.156 C 142.434 223.272,142.360 223.142,142.444 217.692 C 142.546 211.033,142.323 210.830,131.984 208.168 C 123.997 206.112,122.119 206.604,120.398 211.205 C 118.591 216.036,117.363 216.800,111.400 216.800 C 105.610 216.800,104.178 215.974,102.382 211.600 C 100.287 206.498,98.159 205.911,90.061 208.201 M109.918 254.047 C 105.644 254.598,96.874 257.787,92.319 260.447 C 87.335 263.358,85.779 265.412,86.599 267.996 C 87.152 269.740,99.815 282.020,101.310 282.263 C 103.486 282.616,104.346 281.908,115.827 270.324 C 129.886 256.139,130.148 255.790,127.911 254.223 C 126.903 253.517,114.938 253.400,109.918 254.047 M141.864 270.598 C 141.239 270.857,137.279 274.585,133.064 278.881 C 124.599 287.509,123.587 288.218,118.915 288.811 C 115.675 289.222,115.362 289.363,115.139 290.521 C 115.062 290.918,114.906 291.188,114.790 291.121 C 114.675 291.055,114.303 291.259,113.964 291.576 C 113.271 292.223,112.947 295.200,113.570 295.200 C 114.483 295.200,114.939 296.909,114.174 297.468 C 113.288 298.117,111.125 298.165,110.511 297.551 C 109.962 297.002,110.660 295.200,111.421 295.200 C 112.283 295.200,112.375 294.101,111.573 293.376 C 111.148 292.991,110.800 292.452,110.800 292.178 C 110.800 291.519,108.269 289.032,107.447 288.882 C 107.091 288.818,106.800 289.022,106.800 289.336 C 106.800 291.350,102.571 290.138,100.384 287.498 C 97.538 284.060,85.895 272.417,84.600 271.712 C 81.934 270.261,79.816 271.423,78.308 275.166 C 77.066 278.249,76.963 291.038,78.146 295.200 C 79.825 301.102,79.345 301.995,69.728 310.837 C 68.228 312.217,64.750 315.442,62.000 318.004 C 59.250 320.566,54.840 324.605,52.200 326.980 C 49.560 329.355,47.220 331.507,47.000 331.763 C 46.780 332.019,45.340 333.374,43.800 334.774 C 42.260 336.173,39.830 338.427,38.400 339.782 C 36.970 341.137,33.100 344.744,29.800 347.798 C 26.500 350.851,23.143 353.965,22.341 354.716 L 20.882 356.082 20.041 355.241 C 19.500 354.700,19.200 353.890,19.200 352.970 L 19.200 351.539 17.978 352.470 C 17.306 352.981,15.911 354.222,14.878 355.226 C 13.845 356.230,12.682 357.170,12.294 357.316 C 11.906 357.461,11.411 358.045,11.195 358.614 C 10.978 359.183,10.666 359.566,10.501 359.466 C 10.012 359.170,9.200 360.220,9.200 361.148 C 9.200 361.339,8.795 361.474,8.300 361.448 C 7.653 361.413,7.364 361.653,7.272 362.300 C 7.189 362.883,6.869 363.200,6.362 363.200 C 5.908 363.200,5.429 363.596,5.221 364.145 C 5.023 364.665,4.488 365.188,4.031 365.308 C 3.523 365.441,3.200 365.851,3.200 366.363 C 3.200 366.946,2.946 367.200,2.363 367.200 C 1.862 367.200,1.441 367.521,1.316 368.000 C 1.201 368.440,0.858 368.800,0.553 368.800 C 0.092 368.800,0.000 371.385,0.000 384.400 L 0.000 400.000 14.800 400.000 C 28.618 400.000,29.602 399.954,29.628 399.300 C 29.652 398.704,29.705 398.718,29.989 399.400 C 30.263 400.059,30.372 399.901,30.612 398.500 C 30.820 397.284,31.095 396.800,31.579 396.800 C 32.239 396.800,34.896 394.706,34.832 394.236 C 34.701 393.273,34.910 392.864,35.630 392.676 C 36.086 392.557,36.554 392.096,36.670 391.652 C 36.787 391.208,37.268 390.790,37.741 390.722 C 38.264 390.648,38.648 390.264,38.722 389.741 C 38.790 389.268,39.208 388.787,39.652 388.670 C 40.096 388.554,40.553 388.103,40.667 387.667 C 40.781 387.231,41.231 386.781,41.667 386.667 C 42.103 386.553,42.555 386.092,42.673 385.643 C 42.790 385.194,43.218 384.721,43.623 384.593 C 44.028 384.464,44.470 384.008,44.606 383.580 C 44.743 383.151,45.009 382.800,45.198 382.800 C 45.658 382.800,46.800 381.639,46.800 381.171 C 46.800 380.967,46.090 380.800,45.223 380.800 C 42.150 380.800,41.991 379.503,44.709 376.612 C 45.969 375.272,48.710 372.208,50.800 369.803 C 52.890 367.398,56.310 363.534,58.400 361.216 C 60.490 358.898,62.759 356.371,63.441 355.600 C 64.124 354.830,67.184 351.410,70.241 348.000 C 73.299 344.590,77.150 340.270,78.800 338.400 C 80.450 336.530,81.890 334.910,82.000 334.800 C 82.110 334.690,82.830 333.870,83.600 332.977 C 95.765 318.876,93.896 319.761,110.303 320.325 C 123.860 320.791,124.110 320.751,127.217 317.628 C 129.186 315.650,133.926 309.745,135.000 307.933 C 137.186 304.245,138.774 301.373,139.829 299.200 C 141.011 296.768,142.638 295.200,143.979 295.200 C 144.933 295.200,148.800 290.897,148.800 289.835 C 148.800 288.919,148.639 288.800,147.400 288.800 C 144.549 288.800,144.088 287.613,144.994 282.600 C 146.597 273.726,145.399 269.129,141.864 270.598 M16.801 381.801 C 17.319 382.352,18.025 382.757,18.371 382.701 C 18.893 382.617,19.020 383.162,19.116 385.900 C 19.180 387.715,19.090 389.215,18.916 389.233 C 18.742 389.252,18.240 389.345,17.800 389.441 C 15.641 389.911,12.932 390.059,10.972 389.814 L 8.800 389.542 8.800 386.346 C 8.800 383.405,8.888 383.056,9.900 381.994 C 11.452 380.363,15.348 380.255,16.801 381.801 " stroke="none" fill="#ebebeb" fill-rule="evenodd"></path><path id="path1" d="M25.120 20.100 C 24.875 21.732,25.250 22.750,26.142 22.878 C 26.670 22.953,27.048 23.337,27.125 23.875 C 27.202 24.421,27.579 24.798,28.125 24.875 C 28.670 24.953,29.047 25.330,29.125 25.875 C 29.202 26.421,29.579 26.798,30.125 26.875 C 30.670 26.953,31.047 27.330,31.125 27.875 C 31.202 28.421,31.579 28.798,32.125 28.875 C 32.670 28.953,33.047 29.330,33.125 29.875 C 33.202 30.421,33.579 30.798,34.125 30.875 C 34.670 30.953,35.047 31.330,35.125 31.875 C 35.202 32.421,35.579 32.798,36.125 32.875 C 36.670 32.953,37.047 33.330,37.125 33.875 C 37.202 34.421,37.579 34.798,38.125 34.875 C 38.670 34.953,39.047 35.330,39.125 35.875 C 39.202 36.421,39.579 36.798,40.125 36.875 C 40.670 36.953,41.047 37.330,41.125 37.875 C 41.202 38.421,41.579 38.798,42.125 38.875 C 42.670 38.953,43.047 39.330,43.125 39.875 C 43.202 40.421,43.579 40.798,44.125 40.875 C 44.670 40.953,45.047 41.330,45.125 41.875 C 45.202 42.421,45.579 42.798,46.125 42.875 C 46.670 42.953,47.047 43.330,47.125 43.875 C 47.202 44.421,47.579 44.798,48.125 44.875 C 48.670 44.953,49.047 45.330,49.125 45.875 C 49.202 46.421,49.579 46.798,50.125 46.875 C 50.670 46.953,51.047 47.330,51.125 47.875 C 51.202 48.421,51.579 48.798,52.125 48.875 C 52.670 48.953,53.047 49.330,53.125 49.875 C 53.202 50.421,53.579 50.798,54.125 50.875 C 54.670 50.953,55.047 51.330,55.125 51.875 C 55.202 52.421,55.579 52.798,56.125 52.875 C 56.670 52.953,57.047 53.330,57.125 53.875 C 57.202 54.421,57.579 54.798,58.125 54.875 C 58.670 54.953,59.047 55.330,59.125 55.875 C 59.202 56.421,59.579 56.798,60.125 56.875 C 60.670 56.953,61.047 57.330,61.125 57.875 C 61.202 58.421,61.579 58.798,62.125 58.875 C 62.670 58.953,63.047 59.330,63.125 59.875 C 63.202 60.421,63.579 60.798,64.125 60.875 C 64.670 60.953,65.047 61.330,65.125 61.875 C 65.202 62.421,65.579 62.798,66.125 62.875 C 66.670 62.953,67.047 63.330,67.125 63.875 C 67.202 64.421,67.579 64.798,68.125 64.875 C 68.670 64.953,69.047 65.330,69.125 65.875 C 69.202 66.421,69.579 66.798,70.125 66.875 C 70.670 66.953,71.047 67.330,71.125 67.875 C 71.202 68.421,71.579 68.798,72.125 68.875 C 72.670 68.953,73.047 69.330,73.125 69.875 C 73.202 70.421,73.579 70.798,74.125 70.875 C 74.670 70.953,75.047 71.330,75.125 71.875 C 75.202 72.421,75.579 72.798,76.125 72.875 C 76.670 72.953,77.047 73.330,77.125 73.875 C 77.202 74.421,77.579 74.798,78.125 74.875 C 78.670 74.953,79.047 75.330,79.125 75.875 C 79.202 76.421,79.579 76.798,80.125 76.875 C 80.670 76.953,81.047 77.330,81.125 77.875 C 81.202 78.421,81.579 78.798,82.125 78.875 C 82.670 78.953,83.047 79.330,83.125 79.875 C 83.202 80.421,83.579 80.798,84.125 80.875 C 84.670 80.953,85.047 81.330,85.125 81.875 C 85.202 82.421,85.579 82.798,86.125 82.875 C 86.670 82.953,87.047 83.330,87.125 83.875 C 87.202 84.421,87.579 84.798,88.125 84.875 C 88.670 84.953,89.047 85.330,89.125 85.875 C 89.202 86.421,89.579 86.798,90.125 86.875 C 90.670 86.953,91.047 87.330,91.125 87.875 C 91.202 88.421,91.579 88.798,92.125 88.875 C 92.670 88.953,93.047 89.330,93.125 89.875 C 93.202 90.421,93.579 90.798,94.125 90.875 C 94.670 90.953,95.047 91.330,95.125 91.875 C 95.202 92.421,95.579 92.798,96.125 92.875 C 96.670 92.953,97.047 93.330,97.125 93.875 C 97.202 94.421,97.579 94.798,98.125 94.875 C 98.670 94.953,99.047 95.330,99.125 95.875 C 99.202 96.421,99.579 96.798,100.125 96.875 C 100.670 96.953,101.047 97.330,101.125 97.875 C 101.202 98.421,101.579 98.798,102.125 98.875 C 102.670 98.953,103.047 99.330,103.125 99.875 C 103.202 100.421,103.579 100.798,104.125 100.875 C 104.670 100.953,105.047 101.330,105.125 101.875 C 105.202 102.421,105.579 102.798,106.125 102.875 C 106.670 102.953,107.047 103.330,107.125 103.875 C 107.202 104.421,107.579 104.798,108.125 104.875 C 108.670 104.953,109.047 105.330,109.125 105.875 C 109.202 106.421,109.579 106.798,110.125 106.875 C 110.670 106.953,111.047 107.330,111.125 107.875 C 111.202 108.421,111.579 108.798,112.125 108.875 C 112.670 108.953,113.047 109.330,113.125 109.875 C 113.202 110.421,113.579 110.798,114.125 110.875 C 114.670 110.953,115.047 111.330,115.125 111.875 C 115.202 112.421,115.579 112.798,116.125 112.875 C 116.670 112.953,117.047 113.330,117.125 113.875 C 117.202 114.421,117.579 114.798,118.125 114.875 C 118.670 114.953,119.047 115.330,119.125 115.875 C 119.202 116.421,119.579 116.798,120.125 116.875 C 120.670 116.953,121.047 117.330,121.125 117.875 C 121.202 118.421,121.579 118.798,122.125 118.875 C 122.670 118.953,123.047 119.330,123.125 119.875 C 123.202 120.421,123.579 120.798,124.125 120.875 C 124.670 120.953,125.047 121.330,125.125 121.875 C 125.202 122.421,125.579 122.798,126.125 122.875 C 126.670 122.953,127.047 123.330,127.125 123.875 C 127.202 124.421,127.579 124.798,128.125 124.875 C 128.670 124.953,129.047 125.330,129.125 125.875 C 129.202 126.421,129.579 126.798,130.125 126.875 C 130.670 126.953,131.047 127.330,131.125 127.875 C 131.202 128.421,131.579 128.798,132.125 128.875 C 132.670 128.953,133.047 129.330,133.125 129.875 C 133.202 130.421,133.579 130.798,134.125 130.875 C 134.670 130.953,135.047 131.330,135.125 131.875 C 135.202 132.421,135.579 132.798,136.125 132.875 C 136.670 132.953,137.047 133.330,137.125 133.875 C 137.202 134.421,137.579 134.798,138.125 134.875 C 138.670 134.953,139.047 135.330,139.125 135.875 C 139.202 136.421,139.579 136.798,140.125 136.875 C 140.670 136.953,141.047 137.330,141.125 137.875 C 141.202 138.421,141.579 138.798,142.125 138.875 C 142.670 138.953,143.047 139.330,143.125 139.875 C 143.202 140.421,143.579 140.798,144.125 140.875 C 144.670 140.953,145.047 141.330,145.125 141.875 C 145.202 142.421,145.579 142.798,146.125 142.875 C 146.670 142.953,147.047 143.330,147.125 143.875 C 147.202 144.421,147.579 144.798,148.125 144.875 C 148.670 144.953,149.047 145.330,149.125 145.875 C 149.202 146.421,149.579 146.798,150.125 146.875 C 150.670 146.953,151.047 147.330,151.125 147.875 C 151.202 148.421,151.579 148.798,152.125 148.875 C 152.670 148.953,153.047 149.330,153.125 149.875 C 153.202 150.421,153.579 150.798,154.125 150.875 C 154.670 150.953,155.047 151.330,155.125 151.875 C 155.202 152.421,155.579 152.798,156.125 152.875 C 156.670 152.953,157.047 153.330,157.125 153.875 C 157.202 154.421,157.579 154.798,158.125 154.875 C 158.670 154.953,159.047 155.330,159.125 155.875 C 159.202 156.421,159.579 156.798,160.125 156.875 C 160.670 156.953,161.047 157.330,161.125 157.875 C 161.202 158.421,161.579 158.798,162.125 158.875 C 162.670 158.953,163.047 159.330,163.125 159.875 C 163.202 160.421,163.579 160.798,164.125 160.875 C 164.670 160.953,165.047 161.330,165.125 161.875 C 165.202 162.421,165.579 162.798,166.125 162.875 C 166.670 162.953,167.047 163.330,167.125 163.875 C 167.202 164.421,167.579 164.798,168.125 164.875 C 168.670 164.953,169.047 165.330,169.125 165.875 C 169.202 166.421,169.579 166.798,170.125 166.875 C 170.670 166.953,171.047 167.330,171.125 167.875 C 171.202 168.421,171.579 168.798,172.125 168.875 C 172.670 168.953,173.047 169.330,173.125 169.875 C 173.202 170.421,173.579 170.798,174.125 170.875 C 174.670 170.953,175.047 171.330,175.125 171.875 C 175.202 172.421,175.579 172.798,176.125 172.875 C 176.670 172.953,177.047 173.330,177.125 173.875 C 177.202 174.421,177.579 174.798,178.125 174.875 C 178.670 174.953,179.047 175.330,179.125 175.875 C 179.202 176.421,179.579 176.798,180.125 176.875 C 180.670 176.953,181.047 177.330,181.125 177.875 C 181.202 178.421,181.579 178.798,182.125 178.875 C 182.670 178.953,183.047 179.330,183.125 179.875 C 183.202 180.421,183.579 180.798,184.125 180.875 C 184.670 180.953,185.047 181.330,185.125 181.875 C 185.202 182.421,185.579 182.798,186.125 182.875 C 186.670 182.953,187.047 183.330,187.125 183.875 C 187.202 184.421,187.579 184.798,188.125 184.875 C 188.670 184.953,189.047 185.330,189.125 185.875 C 189.202 186.421,189.579 186.798,190.125 186.875 C 190.670 186.953,191.047 187.330,191.125 187.875 C 191.202 188.421,191.579 188.798,192.125 188.875 C 192.670 188.953,193.047 189.330,193.125 189.875 C 193.202 190.421,193.579 190.798,194.125 190.875 C 194.670 190.953,195.047 191.330,195.125 191.875 C 195.202 192.421,195.579 192.798,196.125 192.875 C 196.664 192.952,197.047 193.330,197.123 193.860 C 197.366 195.571,202.634 195.571,202.877 193.860 C 202.953 193.330,203.336 192.952,203.875 192.875 C 204.421 192.798,204.798 192.421,204.875 191.875 C 204.953 191.330,205.330 190.953,205.875 190.875 C 206.421 190.798,206.798 190.421,206.875 189.875 C 206.953 189.330,207.330 188.953,207.875 188.875 C 208.421 188.798,208.798 188.421,208.875 187.875 C 208.953 187.330,209.330 186.953,209.875 186.875 C 210.421 186.798,210.798 186.421,210.875 185.875 C 210.953 185.330,211.330 184.953,211.875 184.875 C 212.421 184.798,212.798 184.421,212.875 183.875 C 212.953 183.330,213.330 182.953,213.875 182.875 C 214.421 182.798,214.798 182.421,214.875 181.875 C 214.953 181.330,215.330 180.953,215.875 180.875 C 216.421 180.798,216.798 180.421,216.875 179.875 C 216.953 179.330,217.330 178.953,217.875 178.875 C 218.421 178.798,218.798 178.421,218.875 177.875 C 218.953 177.330,219.330 176.953,219.875 176.875 C 220.421 176.798,220.798 176.421,220.875 175.875 C 220.953 175.330,221.330 174.953,221.875 174.875 C 222.421 174.798,222.798 174.421,222.875 173.875 C 222.953 173.330,223.330 172.953,223.875 172.875 C 224.421 172.798,224.798 172.421,224.875 171.875 C 224.953 171.330,225.330 170.953,225.875 170.875 C 226.421 170.798,226.798 170.421,226.875 169.875 C 226.953 169.330,227.330 168.953,227.875 168.875 C 228.421 168.798,228.798 168.421,228.875 167.875 C 228.953 167.330,229.330 166.953,229.875 166.875 C 230.421 166.798,230.798 166.421,230.875 165.875 C 230.953 165.330,231.330 164.953,231.875 164.875 C 232.421 164.798,232.798 164.421,232.875 163.875 C 232.953 163.330,233.330 162.953,233.875 162.875 C 234.421 162.798,234.798 162.421,234.875 161.875 C 234.953 161.330,235.330 160.953,235.875 160.875 C 236.421 160.798,236.798 160.421,236.875 159.875 C 236.953 159.330,237.330 158.953,237.875 158.875 C 238.421 158.798,238.798 158.421,238.875 157.875 C 238.953 157.330,239.330 156.953,239.875 156.875 C 240.421 156.798,240.798 156.421,240.875 155.875 C 240.953 155.330,241.330 154.953,241.875 154.875 C 242.421 154.798,242.798 154.421,242.875 153.875 C 242.953 153.330,243.330 152.953,243.875 152.875 C 244.421 152.798,244.798 152.421,244.875 151.875 C 244.953 151.330,245.330 150.953,245.875 150.875 C 246.421 150.798,246.798 150.421,246.875 149.875 C 246.953 149.330,247.330 148.953,247.875 148.875 C 248.421 148.798,248.798 148.421,248.875 147.875 C 248.953 147.330,249.330 146.953,249.875 146.875 C 250.421 146.798,250.798 146.421,250.875 145.875 C 250.953 145.330,251.330 144.953,251.875 144.875 C 252.421 144.798,252.798 144.421,252.875 143.875 C 252.963 143.257,253.323 142.963,254.100 142.873 C 254.964 142.774,255.200 142.538,255.200 141.773 C 255.200 141.002,255.407 140.800,256.200 140.800 C 257.000 140.800,257.200 140.600,257.200 139.800 C 257.200 139.000,257.400 138.800,258.200 138.800 C 259.000 138.800,259.200 138.600,259.200 137.800 C 259.200 137.000,259.400 136.800,260.200 136.800 C 261.000 136.800,261.200 136.600,261.200 135.800 C 261.200 135.000,261.400 134.800,262.200 134.800 C 263.000 134.800,263.200 134.600,263.200 133.800 C 263.200 133.000,263.400 132.800,264.200 132.800 C 265.000 132.800,265.200 132.600,265.200 131.800 C 265.200 131.000,265.400 130.800,266.200 130.800 C 267.000 130.800,267.200 130.600,267.200 129.800 C 267.200 129.000,267.400 128.800,268.200 128.800 C 269.000 128.800,269.200 128.600,269.200 127.800 C 269.200 127.000,269.400 126.800,270.200 126.800 C 271.000 126.800,271.200 126.600,271.200 125.800 C 271.200 125.000,271.400 124.800,272.200 124.800 C 273.000 124.800,273.200 124.600,273.200 123.800 C 273.200 123.000,273.400 122.800,274.200 122.800 C 275.000 122.800,275.200 122.600,275.200 121.800 C 275.200 121.000,275.400 120.800,276.200 120.800 C 277.000 120.800,277.200 120.600,277.200 119.800 C 277.200 119.000,277.400 118.800,278.200 118.800 C 279.000 118.800,279.200 118.600,279.200 117.800 C 279.200 117.000,279.400 116.800,280.200 116.800 C 281.000 116.800,281.200 116.600,281.200 115.800 C 281.200 115.000,281.400 114.800,282.200 114.800 C 283.000 114.800,283.200 114.600,283.200 113.800 C 283.200 113.000,283.400 112.800,284.200 112.800 C 285.000 112.800,285.200 112.600,285.200 111.800 C 285.200 111.000,285.400 110.800,286.200 110.800 C 287.000 110.800,287.200 110.600,287.200 109.800 C 287.200 109.000,287.400 108.800,288.200 108.800 C 289.000 108.800,289.200 108.600,289.200 107.800 C 289.200 107.000,289.400 106.800,290.200 106.800 C 291.000 106.800,291.200 106.600,291.200 105.800 C 291.200 105.000,291.400 104.800,292.200 104.800 C 293.000 104.800,293.200 104.600,293.200 103.800 C 293.200 103.000,293.400 102.800,294.200 102.800 C 295.000 102.800,295.200 102.600,295.200 101.800 C 295.200 101.000,295.400 100.800,296.200 100.800 C 297.000 100.800,297.200 100.600,297.200 99.800 C 297.200 99.000,297.400 98.800,298.200 98.800 C 299.000 98.800,299.200 98.600,299.200 97.800 C 299.200 97.000,299.400 96.800,300.200 96.800 C 301.000 96.800,301.200 96.600,301.200 95.800 C 301.200 95.000,301.400 94.800,302.200 94.800 C 303.000 94.800,303.200 94.600,303.200 93.800 C 303.200 93.079,303.415 92.800,303.972 92.800 C 304.468 92.800,304.790 92.478,304.872 91.900 C 304.953 91.330,305.321 90.954,305.875 90.875 C 306.421 90.798,306.798 90.421,306.875 89.875 C 306.953 89.330,307.330 88.953,307.875 88.875 C 308.421 88.798,308.798 88.421,308.875 87.875 C 308.953 87.330,309.330 86.953,309.875 86.875 C 310.421 86.798,310.798 86.421,310.875 85.875 C 310.953 85.330,311.330 84.953,311.875 84.875 C 312.421 84.798,312.798 84.421,312.875 83.875 C 312.953 83.330,313.330 82.953,313.875 82.875 C 314.421 82.798,314.798 82.421,314.875 81.875 C 314.953 81.330,315.330 80.953,315.875 80.875 C 316.421 80.798,316.798 80.421,316.875 79.875 C 316.953 79.330,317.330 78.953,317.875 78.875 C 318.421 78.798,318.798 78.421,318.875 77.875 C 318.953 77.330,319.330 76.953,319.875 76.875 C 320.421 76.798,320.798 76.421,320.875 75.875 C 320.953 75.330,321.330 74.953,321.875 74.875 C 322.421 74.798,322.798 74.421,322.875 73.875 C 322.953 73.330,323.330 72.953,323.875 72.875 C 324.421 72.798,324.798 72.421,324.875 71.875 C 324.953 71.330,325.330 70.953,325.875 70.875 C 326.421 70.798,326.798 70.421,326.875 69.875 C 326.953 69.330,327.330 68.953,327.875 68.875 C 328.421 68.798,328.798 68.421,328.875 67.875 C 328.953 67.330,329.330 66.953,329.875 66.875 C 330.421 66.798,330.798 66.421,330.875 65.875 C 330.953 65.330,331.330 64.953,331.875 64.875 C 332.421 64.798,332.798 64.421,332.875 63.875 C 332.953 63.330,333.330 62.953,333.875 62.875 C 334.421 62.798,334.798 62.421,334.875 61.875 C 334.953 61.330,335.330 60.953,335.875 60.875 C 336.421 60.798,336.798 60.421,336.875 59.875 C 336.953 59.330,337.330 58.953,337.875 58.875 C 338.421 58.798,338.798 58.421,338.875 57.875 C 338.953 57.330,339.330 56.953,339.875 56.875 C 340.421 56.798,340.798 56.421,340.875 55.875 C 340.953 55.330,341.330 54.953,341.875 54.875 C 342.421 54.798,342.798 54.421,342.875 53.875 C 342.953 53.330,343.330 52.953,343.875 52.875 C 344.421 52.798,344.798 52.421,344.875 51.875 C 344.953 51.330,345.330 50.953,345.875 50.875 C 346.421 50.798,346.798 50.421,346.875 49.875 C 346.953 49.330,347.330 48.953,347.875 48.875 C 348.421 48.798,348.798 48.421,348.875 47.875 C 348.953 47.330,349.330 46.953,349.875 46.875 C 350.421 46.798,350.798 46.421,350.875 45.875 C 350.953 45.330,351.330 44.953,351.875 44.875 C 352.421 44.798,352.798 44.421,352.875 43.875 C 352.953 43.330,353.330 42.953,353.875 42.875 C 354.421 42.798,354.798 42.421,354.875 41.875 C 354.953 41.330,355.330 40.953,355.875 40.875 C 356.421 40.798,356.798 40.421,356.875 39.875 C 356.953 39.330,357.330 38.953,357.875 38.875 C 358.421 38.798,358.798 38.421,358.875 37.875 C 358.953 37.330,359.330 36.953,359.875 36.875 C 360.421 36.798,360.798 36.421,360.875 35.875 C 360.953 35.330,361.330 34.953,361.875 34.875 C 362.421 34.798,362.798 34.421,362.875 33.875 C 362.953 33.330,363.330 32.953,363.875 32.875 C 364.421 32.798,364.798 32.421,364.875 31.875 C 364.953 31.330,365.330 30.953,365.875 30.875 C 366.421 30.798,366.798 30.421,366.875 29.875 C 366.953 29.330,367.330 28.953,367.875 28.875 C 368.421 28.798,368.798 28.421,368.875 27.875 C 368.953 27.330,369.330 26.953,369.875 26.875 C 370.421 26.798,370.798 26.421,370.875 25.875 C 370.953 25.330,371.330 24.953,371.875 24.875 C 372.421 24.798,372.798 24.421,372.875 23.875 C 372.953 23.330,373.330 22.953,373.875 22.875 C 374.789 22.745,375.143 21.748,374.861 20.100 L 374.707 19.200 199.981 19.200 L 25.256 19.200 25.120 20.100 M20.100 25.120 L 19.200 25.256 19.200 189.828 L 19.200 354.400 20.041 355.241 L 20.882 356.082 22.341 354.716 C 23.143 353.965,26.500 350.851,29.800 347.798 C 33.100 344.744,36.970 341.137,38.400 339.782 C 39.830 338.427,42.260 336.173,43.800 334.774 C 45.340 333.374,46.780 332.019,47.000 331.763 C 47.220 331.507,49.560 329.355,52.200 326.980 C 54.840 324.605,59.250 320.566,62.000 318.004 C 64.750 315.442,68.228 312.217,69.728 310.837 C 79.345 301.995,79.825 301.102,78.146 295.200 C 76.963 291.038,77.066 278.249,78.308 275.166 C 79.816 271.423,81.934 270.261,84.600 271.712 C 85.895 272.417,97.538 284.060,100.384 287.498 C 102.545 290.107,106.800 291.354,106.800 289.378 C 106.800 288.762,108.374 288.769,108.453 289.385 C 108.482 289.613,108.617 289.170,108.753 288.400 C 108.936 287.361,109.225 286.968,109.875 286.875 C 110.421 286.798,110.798 286.421,110.875 285.875 C 110.953 285.330,111.330 284.953,111.875 284.875 C 112.421 284.798,112.798 284.421,112.875 283.875 C 112.953 283.330,113.330 282.953,113.875 282.875 C 114.421 282.798,114.798 282.421,114.875 281.875 C 114.953 281.330,115.330 280.953,115.875 280.875 C 116.421 280.798,116.798 280.421,116.875 279.875 C 116.953 279.330,117.330 278.953,117.875 278.875 C 118.421 278.798,118.798 278.421,118.875 277.875 C 118.953 277.330,119.330 276.953,119.875 276.875 C 120.421 276.798,120.798 276.421,120.875 275.875 C 120.953 275.330,121.330 274.953,121.875 274.875 C 122.421 274.798,122.798 274.421,122.875 273.875 C 122.953 273.330,123.330 272.953,123.875 272.875 C 124.421 272.798,124.798 272.421,124.875 271.875 C 124.953 271.330,125.330 270.953,125.875 270.875 C 126.421 270.798,126.798 270.421,126.875 269.875 C 126.953 269.330,127.330 268.953,127.875 268.875 C 128.421 268.798,128.798 268.421,128.875 267.875 C 128.953 267.330,129.330 266.953,129.875 266.875 C 130.421 266.798,130.798 266.421,130.875 265.875 C 130.953 265.330,131.330 264.953,131.875 264.875 C 132.421 264.798,132.798 264.421,132.875 263.875 C 132.953 263.330,133.330 262.953,133.875 262.875 C 134.421 262.798,134.798 262.421,134.875 261.875 C 134.953 261.330,135.330 260.953,135.875 260.875 C 136.421 260.798,136.798 260.421,136.875 259.875 C 136.953 259.330,137.330 258.953,137.875 258.875 C 138.421 258.798,138.798 258.421,138.875 257.875 C 138.954 257.321,139.330 256.953,139.900 256.872 C 140.551 256.780,140.800 256.476,140.800 255.772 C 140.800 255.237,140.968 254.800,141.173 254.800 C 141.744 254.800,142.089 253.315,141.811 252.052 C 141.482 250.551,136.977 247.403,131.508 244.853 C 111.795 235.659,87.560 241.206,74.064 258.000 C 63.872 270.684,59.861 287.568,63.802 301.200 C 65.193 306.012,64.725 307.278,60.044 311.355 C 58.810 312.431,56.379 314.591,54.642 316.155 C 49.175 321.080,50.170 320.716,42.160 320.716 C 33.851 320.716,33.295 320.480,32.164 316.465 C 31.812 315.219,30.912 312.235,30.162 309.834 C 27.827 302.349,28.270 301.065,34.167 298.229 C 38.444 296.171,38.797 295.512,38.799 289.559 C 38.800 283.718,38.405 283.008,33.827 280.641 C 28.179 277.721,27.772 275.652,30.982 266.190 C 33.764 257.988,33.487 258.226,40.257 258.210 C 45.580 258.198,45.466 258.269,48.618 252.987 C 51.455 248.232,51.490 247.220,48.954 243.257 C 45.429 237.746,45.577 237.018,51.460 231.000 C 59.149 223.134,59.607 222.944,63.861 225.857 C 69.216 229.523,69.812 229.549,75.144 226.356 C 80.243 223.302,80.437 222.970,80.302 217.502 C 80.148 211.252,80.562 210.864,90.254 208.176 C 98.319 205.939,100.285 206.495,102.382 211.600 C 104.178 215.974,105.610 216.800,111.400 216.800 C 117.363 216.800,118.591 216.036,120.398 211.205 C 122.119 206.604,123.997 206.112,131.984 208.168 C 142.323 210.830,142.546 211.033,142.444 217.692 C 142.360 223.142,142.434 223.272,147.295 226.156 C 152.775 229.407,154.050 229.447,157.918 226.485 C 161.388 223.828,163.231 223.628,166.014 225.610 C 167.572 226.719,170.625 226.713,170.916 225.600 C 171.038 225.132,171.462 224.800,171.935 224.800 C 172.470 224.800,172.788 224.495,172.872 223.900 C 172.953 223.330,173.321 222.954,173.875 222.875 C 174.421 222.798,174.798 222.421,174.875 221.875 C 174.953 221.330,175.330 220.953,175.875 220.875 C 176.421 220.798,176.798 220.421,176.875 219.875 C 176.953 219.330,177.330 218.953,177.875 218.875 C 178.421 218.798,178.798 218.421,178.875 217.875 C 178.953 217.330,179.330 216.953,179.875 216.875 C 180.421 216.798,180.798 216.421,180.875 215.875 C 180.953 215.330,181.330 214.953,181.875 214.875 C 182.421 214.798,182.798 214.421,182.875 213.875 C 182.953 213.330,183.330 212.953,183.875 212.875 C 184.421 212.798,184.798 212.421,184.875 211.875 C 184.953 211.330,185.330 210.953,185.875 210.875 C 186.421 210.798,186.798 210.421,186.875 209.875 C 186.953 209.330,187.330 208.953,187.875 208.875 C 188.421 208.798,188.798 208.421,188.875 207.875 C 188.953 207.330,189.330 206.953,189.875 206.875 C 190.421 206.798,190.798 206.421,190.875 205.875 C 190.953 205.330,191.330 204.953,191.875 204.875 C 192.421 204.798,192.798 204.421,192.875 203.875 C 192.952 203.336,193.330 202.953,193.860 202.877 C 195.571 202.634,195.571 197.366,193.860 197.123 C 193.330 197.047,192.952 196.664,192.875 196.125 C 192.798 195.579,192.421 195.202,191.875 195.125 C 191.330 195.047,190.953 194.670,190.875 194.125 C 190.798 193.579,190.421 193.202,189.875 193.125 C 189.330 193.047,188.953 192.670,188.875 192.125 C 188.798 191.579,188.421 191.202,187.875 191.125 C 187.330 191.047,186.953 190.670,186.875 190.125 C 186.798 189.579,186.421 189.202,185.875 189.125 C 185.330 189.047,184.953 188.670,184.875 188.125 C 184.798 187.579,184.421 187.202,183.875 187.125 C 183.330 187.047,182.953 186.670,182.875 186.125 C 182.798 185.579,182.421 185.202,181.875 185.125 C 181.330 185.047,180.953 184.670,180.875 184.125 C 180.798 183.579,180.421 183.202,179.875 183.125 C 179.330 183.047,178.953 182.670,178.875 182.125 C 178.798 181.579,178.421 181.202,177.875 181.125 C 177.330 181.047,176.953 180.670,176.875 180.125 C 176.798 179.579,176.421 179.202,175.875 179.125 C 175.330 179.047,174.953 178.670,174.875 178.125 C 174.798 177.579,174.421 177.202,173.875 177.125 C 173.330 177.047,172.953 176.670,172.875 176.125 C 172.798 175.579,172.421 175.202,171.875 175.125 C 171.330 175.047,170.953 174.670,170.875 174.125 C 170.798 173.579,170.421 173.202,169.875 173.125 C 169.330 173.047,168.953 172.670,168.875 172.125 C 168.798 171.579,168.421 171.202,167.875 171.125 C 167.330 171.047,166.953 170.670,166.875 170.125 C 166.798 169.579,166.421 169.202,165.875 169.125 C 165.330 169.047,164.953 168.670,164.875 168.125 C 164.798 167.579,164.421 167.202,163.875 167.125 C 163.330 167.047,162.953 166.670,162.875 166.125 C 162.798 165.579,162.421 165.202,161.875 165.125 C 161.330 165.047,160.953 164.670,160.875 164.125 C 160.798 163.579,160.421 163.202,159.875 163.125 C 159.330 163.047,158.953 162.670,158.875 162.125 C 158.798 161.579,158.421 161.202,157.875 161.125 C 157.330 161.047,156.953 160.670,156.875 160.125 C 156.798 159.579,156.421 159.202,155.875 159.125 C 155.330 159.047,154.953 158.670,154.875 158.125 C 154.798 157.579,154.421 157.202,153.875 157.125 C 153.330 157.047,152.953 156.670,152.875 156.125 C 152.798 155.579,152.421 155.202,151.875 155.125 C 151.330 155.047,150.953 154.670,150.875 154.125 C 150.798 153.579,150.421 153.202,149.875 153.125 C 149.330 153.047,148.953 152.670,148.875 152.125 C 148.798 151.579,148.421 151.202,147.875 151.125 C 147.330 151.047,146.953 150.670,146.875 150.125 C 146.798 149.579,146.421 149.202,145.875 149.125 C 145.330 149.047,144.953 148.670,144.875 148.125 C 144.798 147.579,144.421 147.202,143.875 147.125 C 143.330 147.047,142.953 146.670,142.875 146.125 C 142.798 145.579,142.421 145.202,141.875 145.125 C 141.330 145.047,140.953 144.670,140.875 144.125 C 140.798 143.579,140.421 143.202,139.875 143.125 C 139.330 143.047,138.953 142.670,138.875 142.125 C 138.798 141.579,138.421 141.202,137.875 141.125 C 137.330 141.047,136.953 140.670,136.875 140.125 C 136.798 139.579,136.421 139.202,135.875 139.125 C 135.330 139.047,134.953 138.670,134.875 138.125 C 134.798 137.579,134.421 137.202,133.875 137.125 C 133.330 137.047,132.953 136.670,132.875 136.125 C 132.798 135.579,132.421 135.202,131.875 135.125 C 131.330 135.047,130.953 134.670,130.875 134.125 C 130.798 133.579,130.421 133.202,129.875 133.125 C 129.330 133.047,128.953 132.670,128.875 132.125 C 128.798 131.579,128.421 131.202,127.875 131.125 C 127.330 131.047,126.953 130.670,126.875 130.125 C 126.798 129.579,126.421 129.202,125.875 129.125 C 125.330 129.047,124.953 128.670,124.875 128.125 C 124.798 127.579,124.421 127.202,123.875 127.125 C 123.330 127.047,122.953 126.670,122.875 126.125 C 122.798 125.579,122.421 125.202,121.875 125.125 C 121.330 125.047,120.953 124.670,120.875 124.125 C 120.798 123.579,120.421 123.202,119.875 123.125 C 119.330 123.047,118.953 122.670,118.875 122.125 C 118.798 121.579,118.421 121.202,117.875 121.125 C 117.330 121.047,116.953 120.670,116.875 120.125 C 116.798 119.579,116.421 119.202,115.875 119.125 C 115.330 119.047,114.953 118.670,114.875 118.125 C 114.798 117.579,114.421 117.202,113.875 117.125 C 113.330 117.047,112.953 116.670,112.875 116.125 C 112.798 115.579,112.421 115.202,111.875 115.125 C 111.330 115.047,110.953 114.670,110.875 114.125 C 110.798 113.579,110.421 113.202,109.875 113.125 C 109.330 113.047,108.953 112.670,108.875 112.125 C 108.798 111.579,108.421 111.202,107.875 111.125 C 107.330 111.047,106.953 110.670,106.875 110.125 C 106.798 109.579,106.421 109.202,105.875 109.125 C 105.330 109.047,104.953 108.670,104.875 108.125 C 104.798 107.579,104.421 107.202,103.875 107.125 C 103.330 107.047,102.953 106.670,102.875 106.125 C 102.798 105.579,102.421 105.202,101.875 105.125 C 101.330 105.047,100.953 104.670,100.875 104.125 C 100.798 103.579,100.421 103.202,99.875 103.125 C 99.330 103.047,98.953 102.670,98.875 102.125 C 98.798 101.579,98.421 101.202,97.875 101.125 C 97.330 101.047,96.953 100.670,96.875 100.125 C 96.798 99.579,96.421 99.202,95.875 99.125 C 95.330 99.047,94.953 98.670,94.875 98.125 C 94.798 97.579,94.421 97.202,93.875 97.125 C 93.330 97.047,92.953 96.670,92.875 96.125 C 92.798 95.579,92.421 95.202,91.875 95.125 C 91.330 95.047,90.953 94.670,90.875 94.125 C 90.798 93.579,90.421 93.202,89.875 93.125 C 89.330 93.047,88.953 92.670,88.875 92.125 C 88.798 91.579,88.421 91.202,87.875 91.125 C 87.330 91.047,86.953 90.670,86.875 90.125 C 86.798 89.579,86.421 89.202,85.875 89.125 C 85.330 89.047,84.953 88.670,84.875 88.125 C 84.798 87.579,84.421 87.202,83.875 87.125 C 83.330 87.047,82.953 86.670,82.875 86.125 C 82.798 85.579,82.421 85.202,81.875 85.125 C 81.330 85.047,80.953 84.670,80.875 84.125 C 80.798 83.579,80.421 83.202,79.875 83.125 C 79.330 83.047,78.953 82.670,78.875 82.125 C 78.798 81.579,78.421 81.202,77.875 81.125 C 77.330 81.047,76.953 80.670,76.875 80.125 C 76.798 79.579,76.421 79.202,75.875 79.125 C 75.330 79.047,74.953 78.670,74.875 78.125 C 74.798 77.579,74.421 77.202,73.875 77.125 C 73.330 77.047,72.953 76.670,72.875 76.125 C 72.798 75.579,72.421 75.202,71.875 75.125 C 71.330 75.047,70.953 74.670,70.875 74.125 C 70.798 73.579,70.421 73.202,69.875 73.125 C 69.330 73.047,68.953 72.670,68.875 72.125 C 68.798 71.579,68.421 71.202,67.875 71.125 C 67.330 71.047,66.953 70.670,66.875 70.125 C 66.798 69.579,66.421 69.202,65.875 69.125 C 65.330 69.047,64.953 68.670,64.875 68.125 C 64.798 67.579,64.421 67.202,63.875 67.125 C 63.330 67.047,62.953 66.670,62.875 66.125 C 62.798 65.579,62.421 65.202,61.875 65.125 C 61.330 65.047,60.953 64.670,60.875 64.125 C 60.798 63.579,60.421 63.202,59.875 63.125 C 59.330 63.047,58.953 62.670,58.875 62.125 C 58.798 61.579,58.421 61.202,57.875 61.125 C 57.330 61.047,56.953 60.670,56.875 60.125 C 56.798 59.579,56.421 59.202,55.875 59.125 C 55.330 59.047,54.953 58.670,54.875 58.125 C 54.798 57.579,54.421 57.202,53.875 57.125 C 53.330 57.047,52.953 56.670,52.875 56.125 C 52.798 55.579,52.421 55.202,51.875 55.125 C 51.330 55.047,50.953 54.670,50.875 54.125 C 50.798 53.579,50.421 53.202,49.875 53.125 C 49.330 53.047,48.953 52.670,48.875 52.125 C 48.798 51.579,48.421 51.202,47.875 51.125 C 47.330 51.047,46.953 50.670,46.875 50.125 C 46.798 49.579,46.421 49.202,45.875 49.125 C 45.330 49.047,44.953 48.670,44.875 48.125 C 44.798 47.579,44.421 47.202,43.875 47.125 C 43.330 47.047,42.953 46.670,42.875 46.125 C 42.798 45.579,42.421 45.202,41.875 45.125 C 41.330 45.047,40.953 44.670,40.875 44.125 C 40.798 43.579,40.421 43.202,39.875 43.125 C 39.330 43.047,38.953 42.670,38.875 42.125 C 38.798 41.579,38.421 41.202,37.875 41.125 C 37.330 41.047,36.953 40.670,36.875 40.125 C 36.798 39.579,36.421 39.202,35.875 39.125 C 35.330 39.047,34.953 38.670,34.875 38.125 C 34.798 37.579,34.421 37.202,33.875 37.125 C 33.330 37.047,32.953 36.670,32.875 36.125 C 32.798 35.579,32.421 35.202,31.875 35.125 C 31.330 35.047,30.953 34.670,30.875 34.125 C 30.798 33.579,30.421 33.202,29.875 33.125 C 29.330 33.047,28.953 32.670,28.875 32.125 C 28.798 31.579,28.421 31.202,27.875 31.125 C 27.330 31.047,26.953 30.670,26.875 30.125 C 26.798 29.579,26.421 29.202,25.875 29.125 C 25.330 29.047,24.953 28.670,24.875 28.125 C 24.798 27.579,24.421 27.202,23.875 27.125 C 23.337 27.048,22.953 26.670,22.878 26.142 C 22.750 25.250,21.732 24.875,20.100 25.120 M378.125 25.117 C 377.582 25.199,377.202 25.582,377.125 26.125 C 377.047 26.670,376.670 27.047,376.125 27.125 C 375.579 27.202,375.202 27.579,375.125 28.125 C 375.047 28.670,374.670 29.047,374.125 29.125 C 373.579 29.202,373.202 29.579,373.125 30.125 C 373.047 30.670,372.670 31.047,372.125 31.125 C 371.579 31.202,371.202 31.579,371.125 32.125 C 371.047 32.670,370.670 33.047,370.125 33.125 C 369.579 33.202,369.202 33.579,369.125 34.125 C 369.047 34.670,368.670 35.047,368.125 35.125 C 367.579 35.202,367.202 35.579,367.125 36.125 C 367.047 36.670,366.670 37.047,366.125 37.125 C 365.579 37.202,365.202 37.579,365.125 38.125 C 365.047 38.670,364.670 39.047,364.125 39.125 C 363.579 39.202,363.202 39.579,363.125 40.125 C 363.047 40.670,362.670 41.047,362.125 41.125 C 361.579 41.202,361.202 41.579,361.125 42.125 C 361.047 42.670,360.670 43.047,360.125 43.125 C 359.579 43.202,359.202 43.579,359.125 44.125 C 359.047 44.670,358.670 45.047,358.125 45.125 C 357.579 45.202,357.202 45.579,357.125 46.125 C 357.047 46.670,356.670 47.047,356.125 47.125 C 355.579 47.202,355.202 47.579,355.125 48.125 C 355.047 48.670,354.670 49.047,354.125 49.125 C 353.579 49.202,353.202 49.579,353.125 50.125 C 353.047 50.670,352.670 51.047,352.125 51.125 C 351.579 51.202,351.202 51.579,351.125 52.125 C 351.047 52.670,350.670 53.047,350.125 53.125 C 349.579 53.202,349.202 53.579,349.125 54.125 C 349.047 54.670,348.670 55.047,348.125 55.125 C 347.579 55.202,347.202 55.579,347.125 56.125 C 347.047 56.670,346.670 57.047,346.125 57.125 C 345.579 57.202,345.202 57.579,345.125 58.125 C 345.047 58.670,344.670 59.047,344.125 59.125 C 343.579 59.202,343.202 59.579,343.125 60.125 C 343.047 60.670,342.670 61.047,342.125 61.125 C 341.579 61.202,341.202 61.579,341.125 62.125 C 341.047 62.670,340.670 63.047,340.125 63.125 C 339.579 63.202,339.202 63.579,339.125 64.125 C 339.047 64.670,338.670 65.047,338.125 65.125 C 337.579 65.202,337.202 65.579,337.125 66.125 C 337.047 66.670,336.670 67.047,336.125 67.125 C 335.579 67.202,335.202 67.579,335.125 68.125 C 335.047 68.670,334.670 69.047,334.125 69.125 C 333.579 69.202,333.202 69.579,333.125 70.125 C 333.047 70.670,332.670 71.047,332.125 71.125 C 331.579 71.202,331.202 71.579,331.125 72.125 C 331.047 72.670,330.670 73.047,330.125 73.125 C 329.579 73.202,329.202 73.579,329.125 74.125 C 329.047 74.670,328.670 75.047,328.125 75.125 C 327.579 75.202,327.202 75.579,327.125 76.125 C 327.047 76.670,326.670 77.047,326.125 77.125 C 325.579 77.202,325.202 77.579,325.125 78.125 C 325.047 78.670,324.670 79.047,324.125 79.125 C 323.579 79.202,323.202 79.579,323.125 80.125 C 323.047 80.670,322.670 81.047,322.125 81.125 C 321.579 81.202,321.202 81.579,321.125 82.125 C 321.047 82.670,320.670 83.047,320.125 83.125 C 319.581 83.202,319.202 83.579,319.125 84.121 C 319.056 84.600,318.700 85.049,318.333 85.119 C 317.967 85.189,313.062 89.851,307.433 95.479 L 297.200 105.713 297.200 108.256 C 297.200 110.703,297.238 110.800,298.200 110.800 C 299.000 110.800,299.200 111.000,299.200 111.800 C 299.200 112.600,299.400 112.800,300.200 112.800 C 301.000 112.800,301.200 113.000,301.200 113.800 C 301.200 114.600,301.400 114.800,302.200 114.800 C 303.000 114.800,303.200 115.000,303.200 115.800 C 303.200 116.600,303.400 116.800,304.200 116.800 C 305.000 116.800,305.200 117.000,305.200 117.800 C 305.200 118.600,305.400 118.800,306.200 118.800 C 307.000 118.800,307.200 119.000,307.200 119.800 C 307.200 120.600,307.400 120.800,308.200 120.800 C 309.000 120.800,309.200 121.000,309.200 121.800 C 309.200 122.600,309.400 122.800,310.200 122.800 C 311.000 122.800,311.200 123.000,311.200 123.800 C 311.200 124.600,311.400 124.800,312.200 124.800 C 313.000 124.800,313.200 125.000,313.200 125.800 C 313.200 126.600,313.400 126.800,314.200 126.800 C 315.000 126.800,315.200 127.000,315.200 127.800 C 315.200 128.600,315.400 128.800,316.200 128.800 C 317.000 128.800,317.200 129.000,317.200 129.800 C 317.200 130.600,317.400 130.800,318.200 130.800 C 319.000 130.800,319.200 131.000,319.200 131.800 C 319.200 132.600,319.400 132.800,320.200 132.800 C 321.000 132.800,321.200 133.000,321.200 133.800 C 321.200 134.600,321.400 134.800,322.200 134.800 C 323.000 134.800,323.200 135.000,323.200 135.800 C 323.200 136.600,323.400 136.800,324.200 136.800 C 325.000 136.800,325.200 137.000,325.200 137.800 C 325.200 138.600,325.400 138.800,326.200 138.800 C 327.000 138.800,327.200 139.000,327.200 139.800 C 327.200 140.600,327.400 140.800,328.200 140.800 C 329.000 140.800,329.200 141.000,329.200 141.800 C 329.200 142.600,329.400 142.800,330.200 142.800 C 331.000 142.800,331.200 143.000,331.200 143.800 C 331.200 144.600,331.400 144.800,332.200 144.800 C 333.000 144.800,333.200 145.000,333.200 145.800 C 333.200 146.600,333.400 146.800,334.200 146.800 C 335.000 146.800,335.200 147.000,335.200 147.800 C 335.200 148.600,335.400 148.800,336.200 148.800 C 337.000 148.800,337.200 149.000,337.200 149.800 C 337.200 150.600,337.400 150.800,338.200 150.800 C 339.000 150.800,339.200 151.000,339.200 151.800 C 339.200 152.600,339.400 152.800,340.200 152.800 C 341.000 152.800,341.200 153.000,341.200 153.800 C 341.200 154.600,341.400 154.800,342.200 154.800 C 343.000 154.800,343.200 155.000,343.200 155.800 C 343.200 156.600,343.400 156.800,344.200 156.800 C 345.000 156.800,345.200 157.000,345.200 157.800 C 345.200 158.600,345.400 158.800,346.200 158.800 C 347.000 158.800,347.200 159.000,347.200 159.800 C 347.200 160.600,347.400 160.800,348.200 160.800 C 349.000 160.800,349.200 161.000,349.200 161.800 C 349.200 162.600,349.400 162.800,350.200 162.800 C 351.000 162.800,351.200 163.000,351.200 163.800 C 351.200 164.600,351.400 164.800,352.200 164.800 C 353.000 164.800,353.200 165.000,353.200 165.800 C 353.200 166.600,353.400 166.800,354.200 166.800 C 355.000 166.800,355.200 167.000,355.200 167.800 C 355.200 168.600,355.400 168.800,356.200 168.800 C 357.000 168.800,357.200 169.000,357.200 169.800 C 357.200 170.600,357.400 170.800,358.200 170.800 C 359.000 170.800,359.200 171.000,359.200 171.800 C 359.200 172.600,359.400 172.800,360.200 172.800 C 361.000 172.800,361.200 173.000,361.200 173.800 C 361.200 174.600,361.400 174.800,362.200 174.800 C 363.000 174.800,363.200 175.000,363.200 175.800 C 363.200 176.600,363.400 176.800,364.200 176.800 C 365.000 176.800,365.200 177.000,365.200 177.800 C 365.200 178.600,365.400 178.800,366.200 178.800 C 367.000 178.800,367.200 179.000,367.200 179.800 C 367.200 180.600,367.400 180.800,368.200 180.800 C 369.000 180.800,369.200 181.000,369.200 181.800 C 369.200 182.600,369.400 182.800,370.200 182.800 C 371.000 182.800,371.200 183.000,371.200 183.800 C 371.200 184.600,371.400 184.800,372.200 184.800 C 373.000 184.800,373.200 185.000,373.200 185.800 C 373.200 186.600,373.400 186.800,374.200 186.800 C 375.000 186.800,375.200 187.000,375.200 187.800 C 375.200 188.600,375.400 188.800,376.200 188.800 C 377.000 188.800,377.200 189.000,377.200 189.800 C 377.200 190.719,377.347 190.800,379.000 190.800 L 380.800 190.800 380.800 108.047 L 380.800 25.293 379.900 25.139 C 379.405 25.054,378.606 25.044,378.125 25.117 M290.754 112.354 C 286.456 115.750,204.000 199.054,204.000 200.000 C 204.000 200.946,286.456 284.250,290.754 287.646 C 292.611 289.114,292.240 289.452,326.059 255.500 C 377.793 203.562,380.053 201.257,380.376 200.085 C 380.658 199.060,378.248 196.570,337.037 155.307 C 291.648 109.861,292.688 110.826,290.754 112.354 M198.125 205.079 C 197.598 205.181,197.200 205.598,197.125 206.125 C 197.047 206.670,196.670 207.047,196.125 207.125 C 195.579 207.202,195.202 207.579,195.125 208.125 C 195.047 208.670,194.670 209.047,194.125 209.125 C 193.579 209.202,193.202 209.579,193.125 210.125 C 193.047 210.670,192.670 211.047,192.125 211.125 C 191.579 211.202,191.202 211.579,191.125 212.125 C 191.047 212.670,190.670 213.047,190.125 213.125 C 189.579 213.202,189.202 213.579,189.125 214.125 C 189.047 214.670,188.670 215.047,188.125 215.125 C 187.579 215.202,187.202 215.579,187.125 216.125 C 187.047 216.670,186.670 217.047,186.125 217.125 C 185.579 217.202,185.202 217.579,185.125 218.125 C 185.047 218.670,184.670 219.047,184.125 219.125 C 183.579 219.202,183.202 219.579,183.125 220.125 C 183.047 220.670,182.670 221.047,182.125 221.125 C 181.579 221.202,181.202 221.579,181.125 222.125 C 181.047 222.670,180.670 223.047,180.125 223.125 C 179.579 223.202,179.202 223.579,179.125 224.125 C 179.047 224.670,178.670 225.047,178.125 225.125 C 177.579 225.202,177.202 225.579,177.125 226.125 C 177.046 226.679,176.670 227.047,176.100 227.128 C 175.528 227.209,175.200 227.532,175.200 228.014 C 175.200 228.431,174.840 228.965,174.400 229.200 C 173.106 229.892,173.334 232.361,174.924 234.892 C 176.520 237.433,176.423 238.927,174.468 241.888 C 171.082 247.016,171.003 248.124,173.706 252.612 C 177.097 258.241,177.686 258.608,182.677 258.200 C 188.505 257.723,189.492 258.630,191.821 266.600 C 194.065 274.278,193.469 278.775,190.035 280.055 C 184.955 281.950,182.490 285.690,184.800 288.000 C 185.591 288.791,186.133 288.800,234.400 288.800 L 283.200 288.800 283.200 287.000 C 283.200 285.347,283.119 285.200,282.200 285.200 C 281.400 285.200,281.200 285.000,281.200 284.200 C 281.200 283.400,281.000 283.200,280.200 283.200 C 279.400 283.200,279.200 283.000,279.200 282.200 C 279.200 281.400,279.000 281.200,278.200 281.200 C 277.400 281.200,277.200 281.000,277.200 280.200 C 277.200 279.400,277.000 279.200,276.200 279.200 C 275.400 279.200,275.200 279.000,275.200 278.200 C 275.200 277.400,275.000 277.200,274.200 277.200 C 273.400 277.200,273.200 277.000,273.200 276.200 C 273.200 275.400,273.000 275.200,272.200 275.200 C 271.400 275.200,271.200 275.000,271.200 274.200 C 271.200 273.400,271.000 273.200,270.200 273.200 C 269.400 273.200,269.200 273.000,269.200 272.200 C 269.200 271.400,269.000 271.200,268.200 271.200 C 267.400 271.200,267.200 271.000,267.200 270.200 C 267.200 269.400,267.000 269.200,266.200 269.200 C 265.400 269.200,265.200 269.000,265.200 268.200 C 265.200 267.400,265.000 267.200,264.200 267.200 C 263.400 267.200,263.200 267.000,263.200 266.200 C 263.200 265.400,263.000 265.200,262.200 265.200 C 261.400 265.200,261.200 265.000,261.200 264.200 C 261.200 263.400,261.000 263.200,260.200 263.200 C 259.400 263.200,259.200 263.000,259.200 262.200 C 259.200 261.400,259.000 261.200,258.200 261.200 C 257.400 261.200,257.200 261.000,257.200 260.200 C 257.200 259.400,257.000 259.200,256.200 259.200 C 255.407 259.200,255.200 258.998,255.200 258.227 C 255.200 257.462,254.964 257.226,254.100 257.127 C 253.323 257.037,252.963 256.743,252.875 256.125 C 252.798 255.579,252.421 255.202,251.875 255.125 C 251.330 255.047,250.953 254.670,250.875 254.125 C 250.798 253.579,250.421 253.202,249.875 253.125 C 249.330 253.047,248.953 252.670,248.875 252.125 C 248.798 251.579,248.421 251.202,247.875 251.125 C 247.330 251.047,246.953 250.670,246.875 250.125 C 246.798 249.579,246.421 249.202,245.875 249.125 C 245.330 249.047,244.953 248.670,244.875 248.125 C 244.798 247.579,244.421 247.202,243.875 247.125 C 243.330 247.047,242.953 246.670,242.875 246.125 C 242.798 245.579,242.421 245.202,241.875 245.125 C 241.330 245.047,240.953 244.670,240.875 244.125 C 240.798 243.579,240.421 243.202,239.875 243.125 C 239.330 243.047,238.953 242.670,238.875 242.125 C 238.798 241.579,238.421 241.202,237.875 241.125 C 237.330 241.047,236.953 240.670,236.875 240.125 C 236.798 239.579,236.421 239.202,235.875 239.125 C 235.330 239.047,234.953 238.670,234.875 238.125 C 234.798 237.579,234.421 237.202,233.875 237.125 C 233.330 237.047,232.953 236.670,232.875 236.125 C 232.798 235.579,232.421 235.202,231.875 235.125 C 231.330 235.047,230.953 234.670,230.875 234.125 C 230.798 233.579,230.421 233.202,229.875 233.125 C 229.330 233.047,228.953 232.670,228.875 232.125 C 228.798 231.579,228.421 231.202,227.875 231.125 C 227.330 231.047,226.953 230.670,226.875 230.125 C 226.798 229.579,226.421 229.202,225.875 229.125 C 225.330 229.047,224.953 228.670,224.875 228.125 C 224.798 227.579,224.421 227.202,223.875 227.125 C 223.330 227.047,222.953 226.670,222.875 226.125 C 222.798 225.579,222.421 225.202,221.875 225.125 C 221.330 225.047,220.953 224.670,220.875 224.125 C 220.798 223.579,220.421 223.202,219.875 223.125 C 219.330 223.047,218.953 222.670,218.875 222.125 C 218.798 221.579,218.421 221.202,217.875 221.125 C 217.330 221.047,216.953 220.670,216.875 220.125 C 216.798 219.579,216.421 219.202,215.875 219.125 C 215.330 219.047,214.953 218.670,214.875 218.125 C 214.798 217.579,214.421 217.202,213.875 217.125 C 213.330 217.047,212.953 216.670,212.875 216.125 C 212.798 215.579,212.421 215.202,211.875 215.125 C 211.330 215.047,210.953 214.670,210.875 214.125 C 210.798 213.579,210.421 213.202,209.875 213.125 C 209.330 213.047,208.953 212.670,208.875 212.125 C 208.798 211.579,208.421 211.202,207.875 211.125 C 207.330 211.047,206.953 210.670,206.875 210.125 C 206.798 209.579,206.421 209.202,205.875 209.125 C 205.330 209.047,204.953 208.670,204.875 208.125 C 204.798 207.579,204.421 207.202,203.875 207.125 C 203.338 207.048,202.953 206.670,202.878 206.146 C 202.716 205.006,200.760 204.567,198.125 205.079 M377.200 210.200 C 377.200 211.000,377.000 211.200,376.200 211.200 C 375.400 211.200,375.200 211.400,375.200 212.200 C 375.200 213.000,375.000 213.200,374.200 213.200 C 373.400 213.200,373.200 213.400,373.200 214.200 C 373.200 215.000,373.000 215.200,372.200 215.200 C 371.400 215.200,371.200 215.400,371.200 216.200 C 371.200 217.000,371.000 217.200,370.200 217.200 C 369.400 217.200,369.200 217.400,369.200 218.200 C 369.200 219.000,369.000 219.200,368.200 219.200 C 367.400 219.200,367.200 219.400,367.200 220.200 C 367.200 221.000,367.000 221.200,366.200 221.200 C 365.400 221.200,365.200 221.400,365.200 222.200 C 365.200 223.000,365.000 223.200,364.200 223.200 C 363.400 223.200,363.200 223.400,363.200 224.200 C 363.200 225.000,363.000 225.200,362.200 225.200 C 361.400 225.200,361.200 225.400,361.200 226.200 C 361.200 227.000,361.000 227.200,360.200 227.200 C 359.400 227.200,359.200 227.400,359.200 228.200 C 359.200 229.000,359.000 229.200,358.200 229.200 C 357.400 229.200,357.200 229.400,357.200 230.200 C 357.200 231.000,357.000 231.200,356.200 231.200 C 355.400 231.200,355.200 231.400,355.200 232.200 C 355.200 233.000,355.000 233.200,354.200 233.200 C 353.400 233.200,353.200 233.400,353.200 234.200 C 353.200 235.000,353.000 235.200,352.200 235.200 C 351.400 235.200,351.200 235.400,351.200 236.200 C 351.200 237.000,351.000 237.200,350.200 237.200 C 349.400 237.200,349.200 237.400,349.200 238.200 C 349.200 239.000,349.000 239.200,348.200 239.200 C 347.400 239.200,347.200 239.400,347.200 240.200 C 347.200 241.000,347.000 241.200,346.200 241.200 C 345.400 241.200,345.200 241.400,345.200 242.200 C 345.200 243.000,345.000 243.200,344.200 243.200 C 343.400 243.200,343.200 243.400,343.200 244.200 C 343.200 245.000,343.000 245.200,342.200 245.200 C 341.400 245.200,341.200 245.400,341.200 246.200 C 341.200 247.000,341.000 247.200,340.200 247.200 C 339.400 247.200,339.200 247.400,339.200 248.200 C 339.200 249.000,339.000 249.200,338.200 249.200 C 337.400 249.200,337.200 249.400,337.200 250.200 C 337.200 251.000,337.000 251.200,336.200 251.200 C 335.400 251.200,335.200 251.400,335.200 252.200 C 335.200 253.000,335.000 253.200,334.200 253.200 C 333.400 253.200,333.200 253.400,333.200 254.200 C 333.200 255.000,333.000 255.200,332.200 255.200 C 331.400 255.200,331.200 255.400,331.200 256.200 C 331.200 257.000,331.000 257.200,330.200 257.200 C 329.400 257.200,329.200 257.400,329.200 258.200 C 329.200 259.000,329.000 259.200,328.200 259.200 C 327.400 259.200,327.200 259.400,327.200 260.200 C 327.200 261.000,327.000 261.200,326.200 261.200 C 325.400 261.200,325.200 261.400,325.200 262.200 C 325.200 263.000,325.000 263.200,324.200 263.200 C 323.400 263.200,323.200 263.400,323.200 264.200 C 323.200 265.000,323.000 265.200,322.200 265.200 C 321.400 265.200,321.200 265.400,321.200 266.200 C 321.200 267.000,321.000 267.200,320.200 267.200 C 319.400 267.200,319.200 267.400,319.200 268.200 C 319.200 269.000,319.000 269.200,318.200 269.200 C 317.400 269.200,317.200 269.400,317.200 270.200 C 317.200 270.992,316.998 271.200,316.228 271.200 C 315.524 271.200,315.220 271.449,315.128 272.100 C 315.047 272.670,314.679 273.046,314.125 273.125 C 313.579 273.202,313.202 273.579,313.125 274.125 C 313.047 274.670,312.670 275.047,312.125 275.125 C 311.579 275.202,311.202 275.579,311.125 276.125 C 311.047 276.670,310.670 277.047,310.125 277.125 C 309.579 277.202,309.202 277.579,309.125 278.125 C 309.047 278.670,308.670 279.047,308.125 279.125 C 307.579 279.202,307.202 279.579,307.125 280.125 C 307.047 280.670,306.670 281.047,306.125 281.125 C 305.579 281.202,305.202 281.579,305.125 282.125 C 305.046 282.679,304.670 283.047,304.100 283.128 C 303.449 283.220,303.200 283.524,303.200 284.228 C 303.200 284.998,302.992 285.200,302.200 285.200 C 301.400 285.200,301.200 285.400,301.200 286.200 C 301.200 287.000,301.000 287.200,300.200 287.200 C 299.400 287.200,299.200 287.400,299.200 288.200 C 299.200 289.000,299.000 289.200,298.200 289.200 C 297.400 289.200,297.200 289.400,297.200 290.200 C 297.200 291.000,297.000 291.200,296.200 291.200 C 295.400 291.200,295.200 291.400,295.200 292.200 C 295.200 293.000,295.000 293.200,294.200 293.200 C 293.400 293.200,293.200 293.400,293.200 294.200 C 293.200 295.000,293.000 295.200,292.200 295.200 C 291.400 295.200,291.200 295.400,291.200 296.200 C 291.200 297.000,291.000 297.200,290.200 297.200 C 289.400 297.200,289.200 297.400,289.200 298.200 C 289.200 299.000,289.000 299.200,288.200 299.200 C 287.400 299.200,287.200 299.400,287.200 300.200 C 287.200 301.000,287.000 301.200,286.200 301.200 C 285.400 301.200,285.200 301.400,285.200 302.200 C 285.200 303.000,285.000 303.200,284.200 303.200 C 283.400 303.200,283.200 303.400,283.200 304.200 C 283.200 305.000,283.000 305.200,282.200 305.200 C 281.400 305.200,281.200 305.400,281.200 306.200 C 281.200 307.000,281.000 307.200,280.200 307.200 C 279.400 307.200,279.200 307.400,279.200 308.200 C 279.200 309.000,279.000 309.200,278.200 309.200 C 277.400 309.200,277.200 309.400,277.200 310.200 C 277.200 311.000,277.000 311.200,276.200 311.200 C 275.400 311.200,275.200 311.400,275.200 312.200 C 275.200 313.000,275.000 313.200,274.200 313.200 C 273.400 313.200,273.200 313.400,273.200 314.200 C 273.200 315.000,273.000 315.200,272.200 315.200 C 271.400 315.200,271.200 315.400,271.200 316.200 C 271.200 317.000,271.000 317.200,270.200 317.200 C 269.400 317.200,269.200 317.400,269.200 318.200 C 269.200 319.000,269.000 319.200,268.200 319.200 C 267.400 319.200,267.200 319.400,267.200 320.200 C 267.200 321.000,267.000 321.200,266.200 321.200 C 265.400 321.200,265.200 321.400,265.200 322.200 C 265.200 323.000,265.000 323.200,264.200 323.200 C 263.400 323.200,263.200 323.400,263.200 324.200 C 263.200 325.000,263.000 325.200,262.200 325.200 C 261.400 325.200,261.200 325.400,261.200 326.200 C 261.200 327.000,261.000 327.200,260.200 327.200 C 259.400 327.200,259.200 327.400,259.200 328.200 C 259.200 329.000,259.000 329.200,258.200 329.200 C 257.400 329.200,257.200 329.400,257.200 330.200 C 257.200 331.000,257.000 331.200,256.200 331.200 C 255.400 331.200,255.200 331.400,255.200 332.200 C 255.200 333.000,255.000 333.200,254.200 333.200 C 253.400 333.200,253.200 333.400,253.200 334.200 C 253.200 335.000,253.000 335.200,252.200 335.200 C 251.400 335.200,251.200 335.400,251.200 336.200 C 251.200 337.000,251.000 337.200,250.200 337.200 C 249.400 337.200,249.200 337.400,249.200 338.200 C 249.200 339.000,249.000 339.200,248.200 339.200 C 247.400 339.200,247.200 339.400,247.200 340.200 C 247.200 341.000,247.000 341.200,246.200 341.200 C 245.400 341.200,245.200 341.400,245.200 342.200 C 245.200 343.000,245.000 343.200,244.200 343.200 C 243.400 343.200,243.200 343.400,243.200 344.200 C 243.200 345.000,243.000 345.200,242.200 345.200 C 241.400 345.200,241.200 345.400,241.200 346.200 C 241.200 347.000,241.000 347.200,240.200 347.200 C 239.400 347.200,239.200 347.400,239.200 348.200 C 239.200 349.000,239.000 349.200,238.200 349.200 C 237.400 349.200,237.200 349.400,237.200 350.200 C 237.200 351.000,237.000 351.200,236.200 351.200 C 235.400 351.200,235.200 351.400,235.200 352.200 C 235.200 353.000,235.000 353.200,234.200 353.200 C 233.400 353.200,233.200 353.400,233.200 354.200 C 233.200 355.000,233.000 355.200,232.200 355.200 C 231.400 355.200,231.200 355.400,231.200 356.200 C 231.200 357.000,231.000 357.200,230.200 357.200 C 229.400 357.200,229.200 357.400,229.200 358.200 C 229.200 359.000,229.000 359.200,228.200 359.200 C 227.400 359.200,227.200 359.400,227.200 360.200 C 227.200 361.000,227.000 361.200,226.200 361.200 C 225.400 361.200,225.200 361.400,225.200 362.200 C 225.200 363.000,225.000 363.200,224.200 363.200 C 223.400 363.200,223.200 363.400,223.200 364.200 C 223.200 365.000,223.000 365.200,222.200 365.200 C 221.400 365.200,221.200 365.400,221.200 366.200 C 221.200 367.000,221.000 367.200,220.200 367.200 C 219.400 367.200,219.200 367.400,219.200 368.200 C 219.200 369.000,219.000 369.200,218.200 369.200 C 217.400 369.200,217.200 369.400,217.200 370.200 C 217.200 371.000,217.000 371.200,216.200 371.200 C 215.400 371.200,215.200 371.400,215.200 372.200 C 215.200 373.000,215.000 373.200,214.200 373.200 C 213.400 373.200,213.200 373.400,213.200 374.200 C 213.200 375.000,213.000 375.200,212.200 375.200 C 211.400 375.200,211.200 375.400,211.200 376.200 C 211.200 377.000,211.000 377.200,210.200 377.200 C 209.281 377.200,209.200 377.347,209.200 379.000 L 209.200 380.800 295.000 380.800 L 380.800 380.800 380.800 295.000 L 380.800 209.200 379.000 209.200 C 377.347 209.200,377.200 209.281,377.200 210.200 M127.911 254.223 C 130.148 255.790,129.886 256.139,115.827 270.324 C 104.346 281.908,103.486 282.616,101.310 282.263 C 99.815 282.020,87.152 269.740,86.599 267.996 C 85.332 264.004,90.558 260.177,103.318 255.751 C 109.420 253.635,125.633 252.627,127.911 254.223 M145.600 258.600 C 145.326 258.930,144.687 259.200,144.179 259.200 C 143.526 259.200,143.218 259.464,143.128 260.100 C 143.047 260.670,142.679 261.046,142.125 261.125 C 141.579 261.202,141.202 261.579,141.125 262.125 C 141.047 262.670,140.670 263.047,140.125 263.125 C 139.581 263.202,139.202 263.579,139.125 264.121 C 139.056 264.600,138.700 265.049,138.333 265.119 C 136.430 265.481,117.200 285.675,117.200 287.312 L 117.200 288.911 119.529 288.700 C 123.363 288.352,124.777 287.326,133.064 278.881 C 140.979 270.813,142.226 269.861,144.055 270.486 C 145.744 271.064,146.145 276.231,144.994 282.600 C 143.878 288.776,143.906 288.800,152.200 288.800 C 160.812 288.800,161.102 288.396,159.028 279.276 C 156.167 266.699,148.578 255.012,145.600 258.600 M111.889 293.649 C 112.424 294.184,112.118 295.200,111.421 295.200 C 110.660 295.200,109.962 297.002,110.511 297.551 C 111.125 298.165,113.288 298.117,114.174 297.468 C 114.931 296.915,114.487 295.200,113.586 295.200 C 113.374 295.200,113.200 294.750,113.200 294.200 C 113.200 293.436,112.992 293.200,112.320 293.200 C 111.670 293.200,111.557 293.317,111.889 293.649 M145.438 294.200 C 144.844 294.750,144.171 295.200,143.941 295.200 C 142.637 295.200,140.998 296.794,139.829 299.200 C 138.774 301.373,137.186 304.245,135.000 307.933 C 133.926 309.745,129.186 315.650,127.217 317.628 C 124.110 320.751,123.860 320.791,110.303 320.325 C 93.896 319.761,95.765 318.876,83.600 332.977 C 82.830 333.870,82.110 334.690,82.000 334.800 C 81.890 334.910,80.450 336.530,78.800 338.400 C 77.150 340.270,73.299 344.590,70.241 348.000 C 67.184 351.410,64.124 354.830,63.441 355.600 C 62.759 356.371,60.490 358.898,58.400 361.216 C 56.310 363.534,52.890 367.398,50.800 369.803 C 48.710 372.208,45.969 375.272,44.709 376.612 C 42.526 378.935,42.447 379.090,43.032 379.924 L 43.645 380.800 122.044 380.800 L 200.443 380.800 227.440 353.800 C 242.288 338.950,254.578 326.800,254.751 326.800 C 254.923 326.800,255.306 326.350,255.600 325.800 C 255.894 325.250,256.344 324.800,256.600 324.800 C 256.856 324.800,257.306 324.350,257.600 323.800 C 257.894 323.250,258.344 322.800,258.600 322.800 C 258.856 322.800,259.306 322.350,259.600 321.800 C 259.894 321.250,260.344 320.800,260.600 320.800 C 260.856 320.800,261.306 320.350,261.600 319.800 C 261.894 319.250,262.344 318.800,262.600 318.800 C 262.856 318.800,263.306 318.350,263.600 317.800 C 263.894 317.250,264.344 316.800,264.600 316.800 C 264.856 316.800,265.306 316.350,265.600 315.800 C 265.894 315.250,266.344 314.800,266.600 314.800 C 266.856 314.800,267.306 314.350,267.600 313.800 C 267.894 313.250,268.344 312.800,268.600 312.800 C 268.856 312.800,269.306 312.350,269.600 311.800 C 269.894 311.250,270.344 310.800,270.600 310.800 C 270.856 310.800,271.306 310.350,271.600 309.800 C 271.894 309.250,272.344 308.800,272.600 308.800 C 272.856 308.800,273.306 308.350,273.600 307.800 C 273.894 307.250,274.344 306.800,274.600 306.800 C 274.856 306.800,275.306 306.350,275.600 305.800 C 275.894 305.250,276.344 304.800,276.600 304.800 C 276.856 304.800,277.306 304.350,277.600 303.800 C 277.894 303.250,278.344 302.800,278.600 302.800 C 278.856 302.800,279.306 302.350,279.600 301.800 C 279.894 301.250,280.344 300.800,280.600 300.800 C 280.856 300.800,281.306 300.350,281.600 299.800 C 281.894 299.250,282.354 298.800,282.622 298.800 C 284.062 298.800,284.749 295.156,283.525 294.016 C 282.305 292.879,188.400 292.705,188.400 293.840 C 188.400 294.191,187.815 295.032,187.100 295.707 L 185.800 296.935 188.459 298.168 C 193.548 300.529,194.101 301.774,192.835 308.024 C 190.557 319.270,189.142 321.141,183.282 320.658 C 178.429 320.257,177.621 320.637,175.068 324.515 C 170.877 330.877,170.810 332.198,174.429 336.992 C 177.385 340.907,176.765 342.814,170.516 349.034 C 164.028 355.493,162.678 355.893,158.036 352.735 C 153.596 349.716,152.336 349.674,147.877 352.399 C 142.451 355.715,141.817 356.814,142.479 361.758 C 143.250 367.509,141.676 368.817,130.877 371.399 C 124.112 373.017,122.511 372.423,120.219 367.442 C 118.203 363.064,116.485 362.007,111.373 362.002 C 106.062 361.997,104.496 363.058,101.991 368.354 C 99.693 373.213,97.945 373.367,86.254 369.736 C 80.614 367.984,79.792 366.852,80.231 361.444 C 80.531 357.744,80.279 356.967,77.824 354.029 C 75.378 351.101,75.466 350.919,83.320 342.669 C 90.863 334.747,91.298 334.531,96.098 336.330 C 104.836 339.603,118.491 339.292,128.207 335.597 C 143.594 329.746,154.713 317.206,158.837 301.053 C 159.824 297.188,159.633 296.140,157.800 295.374 C 157.046 295.059,156.236 294.441,156.000 294.001 C 155.276 292.647,146.944 292.804,145.438 294.200 M30.800 397.433 C 30.800 397.782,31.014 397.995,31.275 397.908 C 32.017 397.661,32.140 396.800,31.433 396.800 C 31.085 396.800,30.800 397.085,30.800 397.433 " stroke="none" fill="#040404" fill-rule="evenodd"></path></g></svg>