<svg id="svg" version="1.1" xmlns="http://www.w3.org/2000/svg" xmlns:xlink="http://www.w3.org/1999/xlink" width="400" height="400" viewBox="0, 0, 400,400"><g id="svgg"><path id="path0" d="M111.503 108.497 L 200.000 196.994 288.497 108.497 L 376.994 20.000 200.000 20.000 L 23.006 20.000 111.503 108.497 M20.000 200.000 L 20.000 376.994 108.497 288.497 L 196.994 200.000 108.497 111.503 L 20.000 23.006 20.000 200.000 M337.482 65.518 L 296.000 107.035 338.000 149.000 L 380.000 190.964 380.000 107.482 C 380.000 61.567,379.767 24.000,379.482 24.000 C 379.197 24.000,360.297 42.683,337.482 65.518 M246.994 156.006 L 203.023 200.011 247.511 244.500 L 292.000 288.989 336.489 244.500 L 380.977 200.011 337.006 156.006 C 312.821 131.803,292.569 112.000,292.000 112.000 C 291.431 112.000,271.179 131.803,246.994 156.006 M158.482 244.518 C 136.217 266.803,118.000 285.703,118.000 286.518 C 118.000 287.333,154.900 288.000,200.000 288.000 C 245.100 288.000,282.000 287.317,282.000 286.482 C 282.000 284.832,201.605 204.000,199.964 204.000 C 199.414 204.000,180.747 222.233,158.482 244.518 M294.236 294.236 L 209.472 379.000 294.047 379.522 C 340.564 379.809,378.943 379.724,379.333 379.333 C 379.724 378.943,379.809 340.564,379.522 294.047 L 379.000 209.472 294.236 294.236 M66.000 337.000 L 23.035 380.000 112.035 380.000 L 201.036 380.000 242.518 338.483 C 265.333 315.648,284.000 296.298,284.000 295.483 C 284.000 294.667,244.617 294.000,196.483 294.000 L 108.965 294.000 66.000 337.000 " stroke="none" fill="#000000" fill-rule="evenodd"></path></g></svg>